<svg width="150" height="36" viewBox="0 0 150 36" xmlns="http://www.w3.org/2000/svg">
  <defs>
    <linearGradient id="refined" x1="0%" y1="0%" x2="100%" y2="100%">
      <stop offset="0%" style="stop-color:#FFD54F"/>
      <stop offset="40%" style="stop-color:#FF9800"/>
      <stop offset="100%" style="stop-color:#FF5722"/>
    </linearGradient>
    <linearGradient id="lightAccent" x1="0%" y1="0%" x2="100%" y2="100%">
      <stop offset="0%" style="stop-color:#FFF176"/>
      <stop offset="100%" style="stop-color:#FFD54F"/>
    </linearGradient>
  </defs>
  
  <!-- Refined connection lines -->
  <path d="M7 9 L14 7" stroke="url(#refined)" stroke-width="2" opacity="0.6" stroke-linecap="round"/>
  <path d="M21 9 L14 7" stroke="url(#refined)" stroke-width="2" opacity="0.6" stroke-linecap="round"/>
  <path d="M7 9 L9 15" stroke="url(#refined)" stroke-width="1.8" opacity="0.5" stroke-linecap="round"/>
  <path d="M21 9 L19 15" stroke="url(#refined)" stroke-width="1.8" opacity="0.5" stroke-linecap="round"/>
  <path d="M7 9 L5 21" stroke="url(#refined)" stroke-width="1.5" opacity="0.4" stroke-linecap="round"/>
  <path d="M21 9 L23 21" stroke="url(#refined)" stroke-width="1.5" opacity="0.4" stroke-linecap="round"/>
  <path d="M5 21 L14 25" stroke="url(#refined)" stroke-width="2" opacity="0.6" stroke-linecap="round"/>
  <path d="M23 21 L14 25" stroke="url(#refined)" stroke-width="2" opacity="0.6" stroke-linecap="round"/>
  <path d="M9 15 L19 15" stroke="url(#refined)" stroke-width="1.8" opacity="0.5" stroke-linecap="round"/>
  <path d="M14 7 L14 15" stroke="url(#refined)" stroke-width="1.2" opacity="0.3" stroke-linecap="round"/>
  
  <!-- Main refined neural nodes - fully opaque -->
  <circle cx="7" cy="9" r="4.2" fill="url(#refined)" opacity="1"/>
  <circle cx="21" cy="9" r="4.2" fill="url(#refined)" opacity="1"/>
  <circle cx="5" cy="21" r="3.5" fill="url(#refined)" opacity="1"/>
  <circle cx="23" cy="21" r="3.5" fill="url(#refined)" opacity="1"/>
  <circle cx="14" cy="25" r="5" fill="url(#refined)" opacity="1"/>
  
  <!-- Refined secondary nodes - fully opaque -->
  <circle cx="14" cy="7" r="2.5" fill="url(#lightAccent)" opacity="1"/>
  <circle cx="19" cy="15" r="2" fill="url(#lightAccent)" opacity="1"/>
  <circle cx="9" cy="15" r="2" fill="url(#lightAccent)" opacity="1"/>
  
  <!-- Enhanced central highlight -->
  <circle cx="14" cy="16" r="1.5" fill="#FFF" opacity="0.9"/>
  <circle cx="14" cy="16" r="0.8" fill="#FFE082" opacity="0.6"/>
  
  <!-- Premium typography -->
  <text x="40" y="24" 
        font-family="system-ui, -apple-system, 'Inter', sans-serif" 
        font-size="22" 
        font-weight="600" 
        fill="#1f2937" 
        letter-spacing="-0.02em">
    Lumina
  </text>
</svg> 