<svg width="32" height="32" viewBox="0 0 32 32" xmlns="http://www.w3.org/2000/svg">
  <defs>
    <linearGradient id="refined" x1="0%" y1="0%" x2="100%" y2="100%">
      <stop offset="0%" style="stop-color:#FFD54F"/>
      <stop offset="40%" style="stop-color:#FF9800"/>
      <stop offset="100%" style="stop-color:#FF5722"/>
    </linearGradient>
    <linearGradient id="lightAccent" x1="0%" y1="0%" x2="100%" y2="100%">
      <stop offset="0%" style="stop-color:#FFF176"/>
      <stop offset="100%" style="stop-color:#FFD54F"/>
    </linearGradient>
  </defs>
  
  <!-- Refined connection lines with better curves -->
  <path d="M9 9 L16 7" stroke="url(#refined)" stroke-width="2" opacity="0.6" stroke-linecap="round"/>
  <path d="M23 9 L16 7" stroke="url(#refined)" stroke-width="2" opacity="0.6" stroke-linecap="round"/>
  <path d="M9 9 L11 15" stroke="url(#refined)" stroke-width="1.8" opacity="0.5" stroke-linecap="round"/>
  <path d="M23 9 L21 15" stroke="url(#refined)" stroke-width="1.8" opacity="0.5" stroke-linecap="round"/>
  <path d="M9 9 L7 21" stroke="url(#refined)" stroke-width="1.5" opacity="0.4" stroke-linecap="round"/>
  <path d="M23 9 L25 21" stroke="url(#refined)" stroke-width="1.5" opacity="0.4" stroke-linecap="round"/>
  <path d="M7 21 L16 25" stroke="url(#refined)" stroke-width="2" opacity="0.6" stroke-linecap="round"/>
  <path d="M25 21 L16 25" stroke="url(#refined)" stroke-width="2" opacity="0.6" stroke-linecap="round"/>
  <path d="M11 15 L21 15" stroke="url(#refined)" stroke-width="1.8" opacity="0.5" stroke-linecap="round"/>
  <path d="M16 7 L16 15" stroke="url(#refined)" stroke-width="1.2" opacity="0.3" stroke-linecap="round"/>
  
  <!-- Main neural nodes - fully opaque -->
  <circle cx="9" cy="9" r="4.2" fill="url(#refined)" opacity="1"/>
  <circle cx="23" cy="9" r="4.2" fill="url(#refined)" opacity="1"/>
  <circle cx="7" cy="21" r="3.5" fill="url(#refined)" opacity="1"/>
  <circle cx="25" cy="21" r="3.5" fill="url(#refined)" opacity="1"/>
  <circle cx="16" cy="25" r="5" fill="url(#refined)" opacity="1"/>
  
  <!-- Refined secondary nodes - fully opaque -->
  <circle cx="16" cy="7" r="2.5" fill="url(#lightAccent)" opacity="1"/>
  <circle cx="21" cy="15" r="2" fill="url(#lightAccent)" opacity="1"/>
  <circle cx="11" cy="15" r="2" fill="url(#lightAccent)" opacity="1"/>
  
  <!-- Enhanced central highlight -->
  <circle cx="16" cy="16" r="1.5" fill="#FFF" opacity="0.9"/>
  <circle cx="16" cy="16" r="0.8" fill="#FFE082" opacity="0.6"/>
</svg> 